<mxfile host="Electron" modified="2023-11-12T21:32:20.744Z" agent="Mozilla/5.0 (Windows NT 10.0; Win64; x64) AppleWebKit/537.36 (KHTML, like Gecko) draw.io/22.0.3 Chrome/114.0.5735.289 Electron/25.8.4 Safari/537.36" etag="eMduV_1jMVcxXh7P3lU2" version="22.0.3" type="device">
  <diagram name="Page-1" id="aSBi2hfh9jkGNsimlAVJ">
    <mxGraphModel dx="819" dy="478" grid="1" gridSize="10" guides="1" tooltips="1" connect="1" arrows="1" fold="1" page="1" pageScale="1" pageWidth="850" pageHeight="1100" math="0" shadow="0">
      <root>
        <mxCell id="0" />
        <mxCell id="1" parent="0" />
        <mxCell id="aqAqHSbrgw_0abEuEwiq-10" value="Basis Game Config:&lt;br&gt;1. Game Name&lt;br&gt;2. Description (rules, etc)&lt;br&gt;3. Max/Min Players&lt;br&gt;4. Grid type&lt;br&gt;5. Move types&lt;br&gt;6. Move order&lt;br&gt;7. Additional gameplay rules" style="rounded=0;whiteSpace=wrap;html=1;" vertex="1" parent="1">
          <mxGeometry x="180" y="320" width="120" height="200" as="geometry" />
        </mxCell>
        <mxCell id="aqAqHSbrgw_0abEuEwiq-1" value="OMNI-GRID" style="rounded=0;whiteSpace=wrap;html=1;" vertex="1" parent="1">
          <mxGeometry x="360" y="520" width="120" height="60" as="geometry" />
        </mxCell>
        <mxCell id="aqAqHSbrgw_0abEuEwiq-3" value="Sandbox" style="ellipse;whiteSpace=wrap;html=1;" vertex="1" parent="1">
          <mxGeometry x="360" y="360" width="120" height="80" as="geometry" />
        </mxCell>
        <mxCell id="aqAqHSbrgw_0abEuEwiq-4" value="game.json" style="whiteSpace=wrap;html=1;aspect=fixed;" vertex="1" parent="1">
          <mxGeometry x="200" y="240" width="80" height="80" as="geometry" />
        </mxCell>
        <mxCell id="aqAqHSbrgw_0abEuEwiq-5" value="" style="shape=flexArrow;endArrow=classic;html=1;rounded=0;entryX=0.5;entryY=1;entryDx=0;entryDy=0;exitX=0.5;exitY=0;exitDx=0;exitDy=0;" edge="1" parent="1" source="aqAqHSbrgw_0abEuEwiq-1" target="aqAqHSbrgw_0abEuEwiq-3">
          <mxGeometry width="50" height="50" relative="1" as="geometry">
            <mxPoint x="380" y="540" as="sourcePoint" />
            <mxPoint x="430" y="490" as="targetPoint" />
          </mxGeometry>
        </mxCell>
        <mxCell id="aqAqHSbrgw_0abEuEwiq-6" value="Setup Game base on the provided .json" style="ellipse;whiteSpace=wrap;html=1;" vertex="1" parent="1">
          <mxGeometry x="360" y="240" width="120" height="80" as="geometry" />
        </mxCell>
        <mxCell id="aqAqHSbrgw_0abEuEwiq-8" value="" style="endArrow=classic;html=1;rounded=0;exitX=1;exitY=0.5;exitDx=0;exitDy=0;entryX=-0.03;entryY=0.511;entryDx=0;entryDy=0;entryPerimeter=0;" edge="1" parent="1" source="aqAqHSbrgw_0abEuEwiq-4" target="aqAqHSbrgw_0abEuEwiq-6">
          <mxGeometry width="50" height="50" relative="1" as="geometry">
            <mxPoint x="340" y="280" as="sourcePoint" />
            <mxPoint x="390" y="230" as="targetPoint" />
          </mxGeometry>
        </mxCell>
        <mxCell id="aqAqHSbrgw_0abEuEwiq-9" value="" style="endArrow=classic;html=1;rounded=0;exitX=0.5;exitY=0;exitDx=0;exitDy=0;entryX=0.5;entryY=1;entryDx=0;entryDy=0;" edge="1" parent="1" source="aqAqHSbrgw_0abEuEwiq-3" target="aqAqHSbrgw_0abEuEwiq-6">
          <mxGeometry width="50" height="50" relative="1" as="geometry">
            <mxPoint x="550" y="350" as="sourcePoint" />
            <mxPoint x="600" y="300" as="targetPoint" />
          </mxGeometry>
        </mxCell>
      </root>
    </mxGraphModel>
  </diagram>
</mxfile>
